<svg width="16" height="12" viewBox="0 0 16 12" fill="none" xmlns="http://www.w3.org/2000/svg">
<path fill-rule="evenodd" clip-rule="evenodd" d="M0.5 1C0.5 0.723857 0.723857 0.5 1 0.5H15C15.2761 0.5 15.5 0.723857 15.5 1C15.5 1.27614 15.2761 1.5 15 1.5H1C0.723857 1.5 0.5 1.27614 0.5 1ZM0.5 6C0.5 5.72386 0.723857 5.5 1 5.5H15C15.2761 5.5 15.5 5.72386 15.5 6C15.5 6.27614 15.2761 6.5 15 6.5H1C0.723857 6.5 0.5 6.27614 0.5 6ZM1 10.5C0.723857 10.5 0.5 10.7239 0.5 11C0.5 11.2761 0.723857 11.5 1 11.5H15C15.2761 11.5 15.5 11.2761 15.5 11C15.5 10.7239 15.2761 10.5 15 10.5H1Z" fill="#222222"/>
</svg>
