<svg width="18" height="18" viewBox="0 0 18 18" fill="none" xmlns="http://www.w3.org/2000/svg">
<g clip-path="url(#clip0_202_922)">
<path d="M1.87498 16.125L6.03694 14.5242C6.30314 14.4218 6.43624 14.3707 6.56077 14.3038C6.67139 14.2444 6.77683 14.1759 6.87602 14.0989C6.98768 14.0123 7.08852 13.9115 7.29019 13.7098L15.75 5.24998C16.5784 4.42156 16.5784 3.07841 15.75 2.24998C14.9216 1.42156 13.5784 1.42156 12.75 2.24998L4.2902 10.7098C4.08852 10.9115 3.98768 11.0123 3.90103 11.124C3.82406 11.2231 3.75554 11.3286 3.69616 11.4392C3.62931 11.5637 3.57812 11.6968 3.47573 11.963L1.87498 16.125ZM1.87498 16.125L3.41858 12.1117C3.52903 11.8245 3.58426 11.6809 3.67899 11.6151C3.76177 11.5577 3.86421 11.5359 3.96321 11.5548C4.07648 11.5765 4.18527 11.6853 4.40285 11.9028L6.09716 13.5971C6.31474 13.8147 6.42353 13.9235 6.44516 14.0368C6.46406 14.1358 6.44232 14.2382 6.38484 14.321C6.31907 14.4157 6.17548 14.471 5.88829 14.5814L1.87498 16.125Z" stroke="#F19F9D" stroke-width="2" stroke-linecap="round" stroke-linejoin="round"/>
</g>
<defs>
<clipPath id="clip0_202_922">
<rect width="18" height="18" fill="white"/>
</clipPath>
</defs>
</svg>
