<svg width="25" height="25" viewBox="0 0 25 25" fill="none" xmlns="http://www.w3.org/2000/svg">
<path d="M8.85417 13.0208C8.85417 13.0208 10.2214 14.5833 12.5 14.5833C14.7786 14.5833 16.1458 13.0208 16.1458 13.0208M15.3646 7.8125H15.375M9.63542 7.8125H9.64583M7.29167 18.75V21.1828C7.29167 21.7379 7.29167 22.0154 7.40545 22.1579C7.5044 22.2819 7.65445 22.354 7.81306 22.3538C7.99544 22.3536 8.21216 22.1803 8.64558 21.8335L11.1304 19.8457C11.638 19.4396 11.8918 19.2365 12.1745 19.0921C12.4252 18.964 12.6921 18.8704 12.9679 18.8138C13.2788 18.75 13.6038 18.75 14.2539 18.75H16.875C18.6252 18.75 19.5002 18.75 20.1687 18.4094C20.7567 18.1098 21.2348 17.6317 21.5344 17.0437C21.875 16.3752 21.875 15.5002 21.875 13.75V8.125C21.875 6.37484 21.875 5.49975 21.5344 4.83128C21.2348 4.24327 20.7567 3.76521 20.1687 3.4656C19.5002 3.125 18.6252 3.125 16.875 3.125H8.125C6.37484 3.125 5.49975 3.125 4.83128 3.4656C4.24327 3.76521 3.76521 4.24327 3.4656 4.83128C3.125 5.49975 3.125 6.37484 3.125 8.125V14.5833C3.125 15.5521 3.125 16.0364 3.23148 16.4338C3.52044 17.5122 4.36278 18.3546 5.44119 18.6435C5.83859 18.75 6.32295 18.75 7.29167 18.75ZM15.8854 7.8125C15.8854 8.10015 15.6522 8.33333 15.3646 8.33333C15.0769 8.33333 14.8437 8.10015 14.8437 7.8125C14.8437 7.52485 15.0769 7.29167 15.3646 7.29167C15.6522 7.29167 15.8854 7.52485 15.8854 7.8125ZM10.1562 7.8125C10.1562 8.10015 9.92306 8.33333 9.63542 8.33333C9.34777 8.33333 9.11458 8.10015 9.11458 7.8125C9.11458 7.52485 9.34777 7.29167 9.63542 7.29167C9.92306 7.29167 10.1562 7.52485 10.1562 7.8125Z" stroke="black" stroke-width="2" stroke-linecap="round" stroke-linejoin="round"/>
</svg>
